# xmcd
#
# Track frame offsets: 
#        150
#        16065
#        31027
#        47542
#        62942
#        75327
#        90310
#        105550
#        124132
#        136795
#
# Disc length: 2024 seconds
#
# Revision: 10
# Processed by: cddbd v1.5.2PL0 Copyright (c) Steve Scherf et al.
# Submitted via: ExactAudioCopy v0.99pb4
#
DISCID=6807e60a
DTITLE=Wade Hayes - Old Enough To Know Better
DYEAR=1994
DGENRE=Country
TTITLE0=Don't Make Me Come To Tulsa
TTITLE1=I'm Still Dancin' With You
TTITLE2=Old Enough To Know Better
TTITLE3=Kentucky Bluebird
TTITLE4=Don't Stop
TTITLE5=What I Meant To Say
TTITLE6=Steady As She Goes
TTITLE7=Family Reunion
TTITLE8=Someone Had To Teach You
TTITLE9=It's Gonna Take A Miracle
EXTD=
EXTT0=
EXTT1=
EXTT2=
EXTT3=
EXTT4=
EXTT5=
EXTT6=
EXTT7=
EXTT8=
EXTT9=
PLAYORDER=
